<?xml version="1.0" standalone="no"?>
<!DOCTYPE svg PUBLIC "-//W3C//DTD SVG 20010904//EN"
 "http://www.w3.org/TR/2001/REC-SVG-20010904/DTD/svg10.dtd">
<svg version="1.0" xmlns="http://www.w3.org/2000/svg"
 width="538.000000pt" height="508.000000pt" viewBox="0 0 538.000000 508.000000"
 preserveAspectRatio="xMidYMid meet">

<g transform="translate(0.000000,508.000000) scale(0.100000,-0.100000)"
fill="#000000" stroke="none">
<path d="M2475 4729 c-990 -108 -1768 -853 -1922 -1840 -24 -157 -24 -471 0
-628 228 -1464 1790 -2277 3110 -1620 557 278 971 789 1127 1393 49 192 64
319 64 541 0 222 -15 349 -64 541 -216 836 -913 1466 -1770 1599 -128 19 -423
27 -545 14z m1195 -1758 c0 -999 -1 -1031 -20 -1092 -127 -407 -748 -642
-1305 -494 -49 13 -103 29 -120 35 l-30 11 72 34 c199 92 327 222 401 409 15
36 17 128 22 791 l5 750 26 67 c37 95 80 157 164 237 174 165 455 271 743 280
l42 1 0 -1029z m-1787 -282 c40 -6 107 -20 150 -31 l77 -20 0 -579 c0 -323 -4
-579 -9 -579 -5 0 -44 23 -87 51 -148 97 -254 230 -288 364 -13 48 -16 127
-16 432 l0 373 51 0 c27 0 83 -5 122 -11z"/>
</g>
</svg>
